<?xml version="1.0" encoding="UTF-8"?>
<svg version="1.1" viewBox="0 0 1440 1440" width="360" height="360" xmlns="http://www.w3.org/2000/svg">
<path transform="translate(0)" d="m0 0h1440v1440h-1440z" fill="#FEFEFE"/>
<path transform="translate(882,431)" d="m0 0h3l1 97 1 45 1 69 1 150-1 7-13 11-11 9-14 12-10 9-8 7-12 11-13 13-7 8-14 17-13 17-9 14-12 21-10 21-6 21-3 2-2-6v-303l1-40 10-26 15-33 10-20 11-20 14-22 13-18 13-15 9-11 18-18 11-9 12-10z" fill="#000"/>
<path transform="translate(555,430)" d="m0 0 4 2 16 12 13 10 7 7 8 7 10 10v2h2l9 11 11 13 14 20 14 22 10 18 9 17 13 29 9 24 4 8 1 127v201l-1 22-3-1-10-29-8-16-10-18-8-12-13-18-13-15-9-10-7-8-19-19-8-7-15-13-14-11-17-14-2-2-1-4 1-135 2-142z" fill="#000"/>
<path transform="translate(958,492)" d="m0 0 2 1v378l-9 4-26 10-26 11-25 13-15 9-14 9-16 11-15 11-16 12-12 10-11 9-8 7h-3l2-8 9-17 6-12 20-30 13-16 11-12 32-32 8-7 11-9 13-11 14-11 9-7 3-3-1-141-1-73v-80l9-6 17-9z" fill="#000"/>
<path transform="translate(480,493)" d="m0 0 6 1 10 6 25 14 6 4v70l-1 81-1 144 13 10 13 11 11 9 14 12 8 7 13 13 8 7 12 12 7 8 10 12 12 16 12 19 15 29 3 6v4l-5-2-7-7-11-9-12-10-19-14-14-10-18-12-20-12-18-10-27-13-23-9-20-7-2-2z" fill="#000"/>
<path transform="translate(1024,555)" d="m0 0 4 1v383l-3 2-20 3-24 3-22 4-33 8-29 8-36 12-30 11-26 11-14 7-7 1 1-5 13-9 11-9 13-10 12-9 16-11 15-10 21-13 17-9 23-11 19-8 27-9 12-3 1-1 1-312 1-16 25-6z" fill="#000"/>
<path transform="translate(413,555)" d="m0 0 12 2 28 7 1 1 1 149v177l6 3 20 6 28 11 30 14 18 10 22 14 23 16 15 11 13 10 16 13 8 6 1 4-7-1-23-11-32-13-47-16-36-10-40-9-25-4-32-4-1-2v-200z" fill="#000"/>
</svg>
