<?xml version="1.0" encoding="UTF-8"?>
<svg version="1.1" viewBox="0 0 2048 2048" width="640" height="640" xmlns="http://www.w3.org/2000/svg">
<path transform="translate(0)" d="m0 0h2048v2048h-2048z" fill="#fff"/>
<path transform="translate(1455,561)" d="m0 0 4 2 7 8 95 95v2l-8 7-364 364-1 39-1 171-2 20-4 20-7 21-9 19-9 14-10 13-12 13-11 9-11 8-14 8-20 8-21 5-10 1h-173l3 35 9 115v6l-5-3-15-14-8-7-14-13-8-7-11-10-8-7-13-12-8-7-10-9-13-12-11-10-8-7-10-9-11-10-8-7-12-11-3-1-154-1-20-2-19-5-16-6-18-10-14-11-12-11-7-8-10-13-9-15-9-19-6-18-4-17-2-15v-239l2-22 4-20 7-21 10-21 11-17 9-11 18-18 15-11 21-11 18-6 14-3 7-1h329l168 1 19 2 20 5 16 7 16 9 11 8 4-1 10-11 8-7 295-295 8-9z" fill="#fff"/>
<path transform="translate(1455,561)" d="m0 0 4 2 7 8 95 95v2l-8 7-364 364-1 39-1 171-2 20-4 20-7 21-9 19-9 14-10 13-12 13-11 9-11 8-14 8-20 8-21 5-10 1h-173l3 35 9 115v6l-5-3-15-14-8-7-14-13-8-7-11-10-8-7-13-12-8-7-10-9-13-12-11-10-8-7-10-9-11-10-8-7-12-11-3-1-154-1-20-2-19-5-16-6-18-10-14-11-12-11-7-8-10-13-9-15-9-19-6-18-4-17-2-15v-239l2-22 4-20 7-21 10-21 11-17 9-11 18-18 15-11 21-11 18-6 14-3 7-1h329l168 1 19 2 20 5 16 7 16 9 11 8 4-1 10-11 8-7 295-295 8-9zm-905 334-18 4-13 5-16 9-13 11-7 7-10 13-9 16-6 14-5 16-3 18-1 21-1 184 1 38 3 20 6 20 6 13 6 11 12 16 13 13 13 9 16 8 16 5 7 1 148 1 32 1 11 9 10 10 8 7 10 9 14 13 8 7 12 11 11 10 8 7 13 12 7 5-1-20-6-81 137 1h74l19-3 16-6 13-7 14-11 11-11 12-17 9-17 6-18 4-20 1-13 1-166-4 2-33 33-7-6-98-98 2-4 5-4v-2l4-2 76-76v-2l3-1 1-3-10-7-14-7-16-5-7-1-25-1-231-1z" fill="#161616"/>
<path transform="translate(988,1028)" d="m0 0 103 103 2 1v2l-18 5-92 23h-4v30h-415v-49l395-1 4-15 20-81 4-16z" fill="#161616"/>
<path transform="translate(565,1034)" d="m0 0 275 1v49h-276v-49z" fill="#161616"/>
<path transform="translate(1532,484)" d="m0 0h3l7 8 96 96-2 4-56 56-4-2-102-102v-3l8-7 30-30 1-2h2l1-3 8-7 5-5z" fill="#161616"/>
</svg>
